<?xml version="1.0" standalone="no"?>
<!DOCTYPE svg PUBLIC "-//W3C//DTD SVG 20010904//EN"
 "http://www.w3.org/TR/2001/REC-SVG-20010904/DTD/svg10.dtd">
<svg version="1.0" xmlns="http://www.w3.org/2000/svg"
 width="512.000000pt" height="512.000000pt" viewBox="0 0 512.000000 512.000000"
 preserveAspectRatio="xMidYMid meet">
<metadata>
Created by potrace 1.14, written by Peter Selinger 2001-2017
</metadata>
<g transform="translate(0.000000,512.000000) scale(0.100000,-0.100000)"
fill="#000000" stroke="none">
<path d="M2475 5019 c-160 -23 -178 -27 -285 -55 -270 -73 -573 -227 -790
-405 -90 -73 -285 -270 -352 -355 -202 -256 -362 -602 -394 -854 -4 -25 -10
-65 -14 -89 -12 -65 -4 -238 14 -304 9 -32 25 -77 36 -99 11 -23 20 -59 20
-80 0 -76 -82 -265 -195 -447 -171 -276 -211 -445 -141 -593 33 -69 89 -122
170 -158 l61 -28 1 -413 c1 -397 5 -486 24 -574 49 -220 231 -401 460 -460 64
-17 213 -17 310 0 157 26 358 128 678 343 129 87 331 222 450 302 272 182 257
159 258 405 1 195 -3 184 59 171 115 -26 219 -36 345 -37 265 0 463 45 695
157 167 81 279 161 414 294 110 108 140 143 215 255 146 216 243 492 263 745
13 171 7 420 -13 555 -37 249 -105 467 -201 645 -125 234 -309 446 -538 621
-314 241 -700 402 -1090 453 -106 15 -376 17 -460 5z m429 -215 c28 -4 53 -8
56 -9 3 0 28 -4 55 -9 100 -15 301 -75 410 -121 174 -74 380 -198 520 -313 80
-66 177 -159 205 -197 13 -18 12 -18 -10 1 -43 38 -166 113 -242 149 -120 56
-304 115 -403 130 -16 3 -57 9 -90 14 -61 10 -380 8 -425 -3 -14 -3 -41 -9
-60 -12 -50 -9 -188 -49 -232 -67 -21 -9 -38 -14 -38 -12 0 6 -161 -75 -225
-113 -178 -107 -390 -304 -506 -472 -164 -236 -265 -504 -293 -775 -3 -27 -5
-607 -6 -1287 0 -734 -4 -1247 -9 -1261 -31 -80 -175 -135 -371 -142 -202 -7
-363 128 -414 344 -14 58 -19 201 -9 228 4 10 59 13 268 13 l262 0 27 26 c14
15 27 34 27 43 1 9 2 31 4 49 1 21 -5 42 -17 58 -41 51 -58 54 -322 54 l-244
0 -5 258 c-5 334 -10 348 -123 378 -185 48 -187 145 -5 448 225 377 278 566
204 726 -38 82 -46 117 -45 210 0 107 28 256 72 392 159 483 589 937 1085
1142 96 40 262 94 313 102 20 3 39 7 42 9 3 2 30 6 60 10 30 4 80 10 110 14
66 9 303 5 374 -5z m449 -569 c80 -8 177 -29 272 -60 79 -25 293 -126 318
-148 7 -7 35 -28 62 -47 72 -50 80 -57 162 -139 206 -205 332 -451 388 -761
13 -71 13 -316 0 -400 -31 -204 -100 -385 -214 -560 -19 -30 -38 -57 -41 -60
-3 -3 -23 -27 -45 -55 -48 -60 -130 -142 -194 -193 -25 -20 -48 -39 -51 -42
-14 -15 -172 -110 -220 -133 -130 -60 -287 -107 -415 -124 -100 -13 -323 -7
-418 11 -87 17 -277 76 -329 102 -59 30 -57 42 -57 -287 0 -166 -3 -305 -8
-309 -9 -9 -722 -480 -726 -480 -6 0 1 2421 7 2460 79 477 356 864 766 1070
94 47 302 119 390 135 19 3 67 11 105 18 70 13 138 13 248 2z"/>
<path d="M1080 3002 c-83 -10 -125 -91 -83 -163 28 -46 51 -50 281 -47 207 3
211 3 236 27 53 50 38 145 -27 172 -28 12 -330 20 -407 11z"/>
<path d="M3100 3495 c-300 -50 -517 -298 -526 -603 -6 -223 94 -419 276 -541
113 -76 229 -110 366 -106 105 3 165 17 253 58 396 188 484 707 172 1017 -145
144 -341 208 -541 175z m197 -219 c198 -53 331 -232 316 -428 -25 -357 -452
-519 -703 -268 -212 211 -137 570 140 678 89 34 164 40 247 18z"/>
</g>
</svg>
